<?xml version="1.0" standalone="no"?>
<!DOCTYPE svg PUBLIC "-//W3C//DTD SVG 20010904//EN"
 "http://www.w3.org/TR/2001/REC-SVG-20010904/DTD/svg10.dtd">
<svg version="1.0" xmlns="http://www.w3.org/2000/svg"
 width="668.000000pt" height="591.000000pt" viewBox="0 0 668.000000 591.000000"
 preserveAspectRatio="xMidYMid meet">

<g transform="translate(0.000000,591.000000) scale(0.100000,-0.100000)"
fill="#000000" stroke="none">
<path d="M0 2955 l0 -2955 3340 0 3340 0 0 2955 0 2955 -3340 0 -3340 0 0
-2955z m3923 1013 c37 -44 6 -111 -51 -111 -70 0 -99 80 -45 123 32 25 69 20
96 -12z m-1030 4 c9 -10 20 -39 23 -64 6 -45 7 -46 51 -51 24 -2 53 -13 63
-22 20 -18 27 -69 12 -92 -10 -16 -57 -33 -91 -33 -26 0 -29 -4 -34 -45 -6
-57 -30 -85 -73 -85 -43 0 -74 38 -74 91 0 39 0 39 -39 39 -53 0 -91 31 -91
75 0 44 38 75 91 75 39 0 39 0 39 39 0 53 31 91 74 91 19 0 40 -8 49 -18z
m902 -132 c26 -29 24 -79 -4 -102 -66 -53 -153 29 -101 95 27 34 78 37 105 7z
m245 0 c26 -26 25 -68 -2 -97 -27 -29 -65 -29 -95 -1 -46 43 -16 118 47 118
17 0 39 -9 50 -20z m-125 -135 c28 -27 31 -45 14 -78 -16 -29 -28 -37 -63 -37
-39 0 -66 26 -66 64 0 36 7 48 35 64 31 18 54 14 80 -13z"/>
</g>
</svg>
